<svg xmlns="http://www.w3.org/2000/svg" fill="#636E82" viewBox="0 0 48 48" width="24" color="inherit" class="hidden w-5 md:block"><path d="M41.77 7H6.23a3.31 3.31 0 0 0-2.284.905A3.025 3.025 0 0 0 3 10.091v27.818c0 .82.34 1.606.946 2.186.606.58 1.428.905 2.285.905h35.538a3.31 3.31 0 0 0 2.285-.905c.606-.58.946-1.366.946-2.186V10.091c0-.82-.34-1.606-.946-2.186A3.306 3.306 0 0 0 41.769 7Zm-3.232 26.273c.429 0 .84.162 1.143.452.303.29.473.683.473 1.093 0 .41-.17.803-.473 1.093-.303.29-.714.453-1.142.453H9.461c-.429 0-.84-.163-1.143-.453a1.512 1.512 0 0 1-.473-1.093V13.182c0-.41.17-.803.473-1.093.303-.29.714-.453 1.143-.453.428 0 .839.163 1.142.453.303.29.473.683.473 1.093v12.155l7.043-5.616a1.671 1.671 0 0 1 1.93-.099l8.683 5.543 8.766-6.99a1.661 1.661 0 0 1 1.18-.35c.427.037.821.234 1.095.55.274.315.407.721.367 1.13a1.526 1.526 0 0 1-.575 1.047l-9.692 7.727a1.67 1.67 0 0 1-1.93.099l-8.683-5.543-8.184 6.526v3.912h27.461Z"></path></svg>