<svg xmlns="http://www.w3.org/2000/svg" fill="#636E82" viewBox="0 0 48 48" width="24" color="inherit" class="hidden w-5 md:block"><path d="M41.592 32.76c-1.041-1.747-2.588-6.69-2.588-13.144 0-3.876-1.581-7.594-4.395-10.335C31.796 6.54 27.98 5 24.001 5c-3.979 0-7.795 1.54-10.609 4.28-2.813 2.742-4.394 6.46-4.394 10.336 0 6.457-1.549 11.397-2.59 13.144a2.866 2.866 0 0 0-.01 2.927c.263.446.642.817 1.098 1.074a3.06 3.06 0 0 0 1.502.394h7.653a7.279 7.279 0 0 0 2.606 4.198A7.625 7.625 0 0 0 24.001 43a7.625 7.625 0 0 0 4.743-1.647 7.278 7.278 0 0 0 2.606-4.198h7.654c.527 0 1.045-.137 1.501-.395a2.963 2.963 0 0 0 1.097-1.074 2.865 2.865 0 0 0-.01-2.926ZM24 40.078a4.58 4.58 0 0 1-2.598-.805 4.399 4.399 0 0 1-1.644-2.118h8.484a4.398 4.398 0 0 1-1.644 2.118 4.582 4.582 0 0 1-2.598.805Z"></path></svg>